<svg xmlns="http://www.w3.org/2000/svg" id="titleAsset" xmlns:xlink="http://www.w3.org/1999/xlink" viewBox="0 0 694.9 679.33"><defs><style>.cls-1{fill:#0ff2ff;}.cls-2{opacity:0.78;}.cls-3{fill:url(#New_Gradient_Swatch);}.cls-4{fill:url(#New_Gradient_Swatch-2);}</style><linearGradient id="New_Gradient_Swatch" x1="656.52" y1="37.45" x2="656.52" y2="690.86" gradientUnits="userSpaceOnUse"><stop offset="0.02" stop-color="#6f93f2"/><stop offset="0.12" stop-color="#808bf3"/><stop offset="0.34" stop-color="#ac75f4"/><stop offset="0.47" stop-color="#cb66f5"/><stop offset="0.98" stop-color="#f783a0"/></linearGradient><linearGradient id="New_Gradient_Swatch-2" x1="402.55" y1="174.27" x2="402.55" y2="689.41" xlink:href="#New_Gradient_Swatch"/></defs><title>TitleAsset</title><g id="Layer_2" data-name="Layer 2"><g id="Front_Page" data-name="Front Page"><polygon class="cls-1" points="73.7 112.42 323.57 679.33 563.38 395.88 324.67 675.1 77.54 115.87 545.77 268.61 73.7 112.42"/><g class="cls-2"><path class="cls-3" d="M613.39,10c-96.73,0-183.75,41.93-244.18,108.74L922.37,297.12,749.14,505,591.78,684s115.62-1.17,209.16-66.22c4-2.76,8-5.67,11.94-8.74a333.74,333.74,0,0,0,131-265.71C943.83,159.23,795.89,10,613.39,10Z" transform="translate(-248.93 -10)"/><path class="cls-4" d="M556.16,684,528.67,620.2l.05,0-1.36-3.35L322.76,152.63a322.68,322.68,0,0,0-73.83,205.9c0,105.44,50.38,199.12,128.37,258.28,0,0,27.71,24.75,77.89,45h0C498.65,681.26,556.16,684,556.16,684Z" transform="translate(-248.93 -10)"/></g></g></g></svg>