<svg id="titleAsset" xmlns="http://www.w3.org/2000/svg" xmlns:xlink="http://www.w3.org/1999/xlink" viewBox="0 0 694.9 679.33"><defs><style>.tL-1{fill:url(#linear-gradient);}.tL-2{fill:url(#linear-gradient-2);}.tL-3{fill:#0ff2ff;}</style><linearGradient id="linear-gradient" x1="139.89" y1="155.47" x2="139.89" y2="777.65" gradientUnits="userSpaceOnUse"><stop offset="0.02" stop-color="#6f93f2"/><stop offset="0.12" stop-color="#808bf3"/><stop offset="0.34" stop-color="#ac75f4"/><stop offset="0.47" stop-color="#cb66f5"/><stop offset="0.98" stop-color="#f783a0"/></linearGradient><linearGradient id="linear-gradient-2" x1="407.59" y1="16.18" x2="407.59" y2="799.79" xlink:href="#linear-gradient"/></defs><title>TitleAsset_1</title><g id="Layer_2" data-name="Layer 2"><g id="Front_Page" data-name="Front Page"><path class="tL-1" d="M278.42,606.81,73.83,142.63A322.62,322.62,0,0,0,0,348.53C0,454,50.37,547.65,128.37,606.81c0,0,37.9,33.88,105.35,54.85l11.19-6.81-2-5.64,12-6.44,5.21-16,19.61-16.6Z"/><path class="tL-2" d="M364.45,0C267.73,0,180.71,41.93,120.28,108.74L673.44,287.12,413.47,599,391,621.5l15,15,5.18-5.18,24.26,22.36S507.53,643.39,564,599A333.74,333.74,0,0,0,694.9,333.32C694.9,149.23,547,0,364.45,0Z"/><polygon class="tL-3" points="73.7 112.42 323.57 679.33 563.38 395.88 324.67 675.1 77.54 115.87 545.77 268.61 73.7 112.42"/></g></g></svg>